#N canvas 306 78 779 560 10;
#X obj 76 32 tgl 15 0 empty empty empty 17 7 0 10 -262144 -1 -1 0 1
;
#X obj 77 97 f 0;
#X obj 114 98 + 1;
#X floatatom 77 158 5 0 0 0 - - -, f 5;
#X obj 136 238 print;
#X msg 139 395 2;
#X msg 304 393 4;
#X msg 129 487 send /event \$1;
#X obj 129 520 packOSC;
#X msg 179 551 disconnect;
#X obj 128 603 udpsend;
#X msg 179 576 connect localhost 11000;
#X obj 128 639 tgl 15 0 empty empty empty 17 7 0 10 -262144 -1 -1 0
1;
#X obj 75 328 readsf~;
#X obj 75 369 dac~;
#X obj 77 258 sel 0;
#X obj 631 563 readsf~;
#X msg 709 593 stop;
#X floatatom 76 228 5 0 0 0 - - -, f 5;
#X floatatom 236 205 5 0 0 0 - - -, f 5;
#X obj 236 312 readsf~;
#X obj 236 353 dac~;
#X obj 77 194 % 4;
#X obj 236 178 % 8;
#X floatatom 389 150 5 0 0 0 - - -, f 5;
#X obj 236 232 sel 1;
#X msg 49 395 1;
#X obj 391 294 readsf~;
#X obj 391 335 dac~;
#X floatatom 509 110 5 0 0 0 - - -, f 5;
#X obj 509 204 readsf~;
#X obj 509 245 dac~;
#X obj 509 84 % 16;
#X obj 508 136 sel 3;
#X floatatom 691 107 5 0 0 0 - - -, f 5;
#X obj 691 226 readsf~;
#X obj 691 267 dac~;
#X obj 690 133 sel 4;
#X obj 114 123 % 25;
#X obj 691 81 % 24;
#X msg 509 170 open data/h_wine_glass_400hz.wav \, start;
#X obj 633 626 dac~;
#X msg 691 197 open data/l_chinesegong.wav \, start;
#X msg 177 267 open data/l_tank_deep.wav \, start;
#X msg 13 294 open data/l_shaman_drum.wav \, start;
#X msg 707 565 start;
#X msg 389 266 open data/h_cystalboom.wav \, start;
#X floatatom 389 56 5 0 0 0 - - -, f 5;
#X obj 389 76 sel 0;
#X obj 389 100 f 0;
#X obj 424 100 + 1;
#X obj 458 100 % 26;
#X obj 77 66 metro 1000;
#X msg 630 530 open data/Monolake.wav \, start;
#X obj 390 226 sel 0 1 2;
#X obj 462 326 readsf~;
#X obj 462 367 dac~;
#X msg 462 297 open data/shootingstar.wav \, start;
#X msg 442 394 5;
#X msg 530 395 6;
#X obj 625 444 readsf~;
#X msg 699 444 stop;
#X obj 626 481 dac~;
#X msg 697 416 start;
#X text 619 367 loop : river;
#X text 626 513 loop : techno_inscent;
#X msg 623 386 open data/river.wav \, start;
#X msg 246 392 3;
#X text 243 409 水晶合併;
#X text 305 408 水晶散開;
#X text 68 412 山形開啟;
#X text 151 412 山形合併;
#X obj 632 595 *~ 0.3;
#X connect 0 0 52 0;
#X connect 0 0 66 0;
#X connect 0 0 53 0;
#X connect 1 0 2 0;
#X connect 1 0 3 0;
#X connect 2 0 38 0;
#X connect 3 0 22 0;
#X connect 3 0 23 0;
#X connect 3 0 32 0;
#X connect 3 0 39 0;
#X connect 5 0 7 0;
#X connect 6 0 7 0;
#X connect 7 0 8 0;
#X connect 8 0 10 0;
#X connect 9 0 10 0;
#X connect 10 0 12 0;
#X connect 11 0 10 0;
#X connect 13 0 14 0;
#X connect 13 0 14 1;
#X connect 15 0 44 0;
#X connect 15 0 26 0;
#X connect 16 0 72 0;
#X connect 16 1 53 0;
#X connect 17 0 16 0;
#X connect 18 0 15 0;
#X connect 19 0 25 0;
#X connect 20 0 21 0;
#X connect 20 0 21 1;
#X connect 22 0 18 0;
#X connect 22 0 47 0;
#X connect 23 0 19 0;
#X connect 24 0 54 0;
#X connect 25 0 43 0;
#X connect 25 0 5 0;
#X connect 26 0 7 0;
#X connect 27 0 28 0;
#X connect 27 0 28 1;
#X connect 29 0 33 0;
#X connect 30 0 31 0;
#X connect 30 0 31 1;
#X connect 32 0 29 0;
#X connect 33 0 40 0;
#X connect 33 0 6 0;
#X connect 34 0 37 0;
#X connect 35 0 36 0;
#X connect 35 0 36 1;
#X connect 37 0 42 0;
#X connect 37 0 59 0;
#X connect 38 0 1 1;
#X connect 39 0 34 0;
#X connect 40 0 30 0;
#X connect 42 0 35 0;
#X connect 43 0 20 0;
#X connect 44 0 13 0;
#X connect 46 0 27 0;
#X connect 47 0 48 0;
#X connect 48 0 49 0;
#X connect 49 0 50 0;
#X connect 49 0 24 0;
#X connect 50 0 51 0;
#X connect 51 0 49 1;
#X connect 52 0 1 0;
#X connect 53 0 16 0;
#X connect 54 0 46 0;
#X connect 54 0 67 0;
#X connect 54 2 57 0;
#X connect 54 2 58 0;
#X connect 55 0 56 0;
#X connect 55 0 56 1;
#X connect 57 0 55 0;
#X connect 58 0 7 0;
#X connect 59 0 7 0;
#X connect 60 0 62 0;
#X connect 60 0 62 1;
#X connect 60 1 66 0;
#X connect 61 0 60 0;
#X connect 66 0 60 0;
#X connect 67 0 7 0;
#X connect 72 0 41 0;
#X connect 72 0 41 1;
